<mxfile host="app.diagrams.net" modified="2022-06-30T07:52:18.453Z" agent="5.0 (Macintosh; Intel Mac OS X 10_15_7) AppleWebKit/537.36 (KHTML, like Gecko) Chrome/101.0.4951.64 Safari/537.36" etag="a1J4_F2JujxG-lMOYW0p" version="20.0.4" type="github">
  <diagram name="Page-1" id="e7e014a7-5840-1c2e-5031-d8a46d1fe8dd">
    <mxGraphModel dx="946" dy="550" grid="1" gridSize="10" guides="1" tooltips="1" connect="1" arrows="1" fold="1" page="1" pageScale="1" pageWidth="1169" pageHeight="826" background="none" math="0" shadow="0">
      <root>
        <mxCell id="0" />
        <mxCell id="1" parent="0" />
        <mxCell id="2" value="研究内容1&#xa;微观交通流下的混合交通流模型" style="swimlane;whiteSpace=wrap;startSize=42;" parent="1" vertex="1">
          <mxGeometry x="164.5" y="128" width="280" height="442" as="geometry" />
        </mxCell>
        <mxCell id="ON_Gw78z4LzEWuKdQg5E-50" style="edgeStyle=orthogonalEdgeStyle;rounded=0;orthogonalLoop=1;jettySize=auto;html=1;entryX=0.505;entryY=-0.03;entryDx=0;entryDy=0;entryPerimeter=0;" edge="1" parent="2" source="7" target="8">
          <mxGeometry relative="1" as="geometry" />
        </mxCell>
        <mxCell id="7" value="领先巡航控制LCC&#xa;模型建模" style="" parent="2" vertex="1">
          <mxGeometry x="60" y="110" width="110" height="50" as="geometry" />
        </mxCell>
        <mxCell id="10" value="队列稳定性分析" style="" parent="2" vertex="1">
          <mxGeometry x="60" y="325" width="110" height="50" as="geometry" />
        </mxCell>
        <mxCell id="8" value="名义控制器设计" style="" parent="2" vertex="1">
          <mxGeometry x="60" y="220" width="110" height="50" as="geometry" />
        </mxCell>
        <mxCell id="ON_Gw78z4LzEWuKdQg5E-62" value="" style="shape=flexArrow;endArrow=classic;html=1;rounded=0;fillColor=#000000;" edge="1" parent="2">
          <mxGeometry width="50" height="50" relative="1" as="geometry">
            <mxPoint x="245.5" y="244.5" as="sourcePoint" />
            <mxPoint x="315.5" y="244.5" as="targetPoint" />
          </mxGeometry>
        </mxCell>
        <mxCell id="4" value="研究内容3&#xa;时延、干扰和观测器误差下的鲁棒安全控制" style="swimlane;whiteSpace=wrap;startSize=42;" parent="1" vertex="1">
          <mxGeometry x="724.5" y="128" width="280" height="442" as="geometry" />
        </mxCell>
        <mxCell id="ON_Gw78z4LzEWuKdQg5E-57" style="edgeStyle=orthogonalEdgeStyle;rounded=0;orthogonalLoop=1;jettySize=auto;html=1;entryX=0.497;entryY=0.01;entryDx=0;entryDy=0;entryPerimeter=0;" edge="1" parent="4" source="33" target="ON_Gw78z4LzEWuKdQg5E-55">
          <mxGeometry relative="1" as="geometry" />
        </mxCell>
        <mxCell id="33" value="控制器延迟，环境干扰&#xa;和通信拓扑的定义" style="" parent="4" vertex="1">
          <mxGeometry x="60" y="110" width="160" height="50" as="geometry" />
        </mxCell>
        <mxCell id="ON_Gw78z4LzEWuKdQg5E-60" style="edgeStyle=orthogonalEdgeStyle;rounded=0;orthogonalLoop=1;jettySize=auto;html=1;entryX=0.5;entryY=0;entryDx=0;entryDy=0;entryPerimeter=0;" edge="1" parent="4" source="ON_Gw78z4LzEWuKdQg5E-55" target="ON_Gw78z4LzEWuKdQg5E-56">
          <mxGeometry relative="1" as="geometry" />
        </mxCell>
        <mxCell id="ON_Gw78z4LzEWuKdQg5E-55" value="设计延迟、干扰和误差鲁棒&#xa;的控制障碍函数安全约束" style="" vertex="1" parent="4">
          <mxGeometry x="60" y="220" width="160" height="50" as="geometry" />
        </mxCell>
        <mxCell id="ON_Gw78z4LzEWuKdQg5E-56" value="基于二次规划的&#xa;鲁棒安全关键控制" style="" vertex="1" parent="4">
          <mxGeometry x="60" y="332" width="160" height="50" as="geometry" />
        </mxCell>
        <mxCell id="ON_Gw78z4LzEWuKdQg5E-49" style="edgeStyle=orthogonalEdgeStyle;rounded=0;orthogonalLoop=1;jettySize=auto;html=1;" edge="1" parent="1" source="8">
          <mxGeometry relative="1" as="geometry">
            <mxPoint x="279.5" y="450" as="targetPoint" />
          </mxGeometry>
        </mxCell>
        <mxCell id="3" value="研究内容2&#xa;基于控制障碍函数的安全关键控制" style="swimlane;whiteSpace=wrap;startSize=42;" parent="1" vertex="1">
          <mxGeometry x="444.5" y="128" width="280" height="442" as="geometry" />
        </mxCell>
        <mxCell id="ON_Gw78z4LzEWuKdQg5E-54" style="edgeStyle=orthogonalEdgeStyle;rounded=0;orthogonalLoop=1;jettySize=auto;html=1;entryX=0.5;entryY=0.01;entryDx=0;entryDy=0;entryPerimeter=0;" edge="1" parent="3" source="15" target="16">
          <mxGeometry relative="1" as="geometry" />
        </mxCell>
        <mxCell id="15" value="混合交通流下&#xa;的安全定义" style="" parent="3" vertex="1">
          <mxGeometry x="85.5" y="110" width="110" height="50" as="geometry" />
        </mxCell>
        <mxCell id="ON_Gw78z4LzEWuKdQg5E-52" value="" style="edgeStyle=orthogonalEdgeStyle;rounded=0;orthogonalLoop=1;jettySize=auto;html=1;entryX=0.5;entryY=-0.01;entryDx=0;entryDy=0;entryPerimeter=0;" edge="1" parent="3" source="16" target="18">
          <mxGeometry relative="1" as="geometry">
            <mxPoint x="140.5" y="332" as="targetPoint" />
          </mxGeometry>
        </mxCell>
        <mxCell id="16" value="基于控制障碍函数&#xa;的约束设计" style="" parent="3" vertex="1">
          <mxGeometry x="85.5" y="220" width="110" height="50" as="geometry" />
        </mxCell>
        <mxCell id="18" value="基于二次规划&#xa;的安全关键控制" style="" parent="3" vertex="1">
          <mxGeometry x="85.5" y="330" width="110" height="50" as="geometry" />
        </mxCell>
        <mxCell id="ON_Gw78z4LzEWuKdQg5E-63" value="" style="shape=flexArrow;endArrow=classic;html=1;rounded=0;fillColor=#000000;" edge="1" parent="3">
          <mxGeometry width="50" height="50" relative="1" as="geometry">
            <mxPoint x="245.5" y="244.5" as="sourcePoint" />
            <mxPoint x="315.5" y="244.5" as="targetPoint" />
          </mxGeometry>
        </mxCell>
      </root>
    </mxGraphModel>
  </diagram>
</mxfile>
